<?xml version="1.0" encoding="UTF-8"?>
<svg width="20px" height="20px" viewBox="0 0 20 20" version="1.1" xmlns="http://www.w3.org/2000/svg" xmlns:xlink="http://www.w3.org/1999/xlink">
    <!-- Generator: Sketch 49.3 (51167) - http://www.bohemiancoding.com/sketch -->
    <title>contact-logo-linkedin-black</title>
    <desc>Created with Sketch.</desc>
    <defs></defs>
    <g id="Design-V2" stroke="none" stroke-width="1" fill="none" fill-rule="evenodd">
        <g id="Desktop-HD-Copy" transform="translate(-66.000000, -461.000000)" fill="#000000" fill-rule="nonzero">
            <path d="M70.2644558,480.047619 L66.3146259,480.047619 L66.3146259,467.330782 L70.2644558,467.330782 L70.2644558,480.047619 Z M68.287415,465.596088 C67.0246599,465.596088 66,464.55017 66,463.287415 C66,462.02466 67.0246599,461 68.287415,461 C69.5501701,461 70.5748299,462.02466 70.5748299,463.287415 C70.5748299,464.55017 69.5501701,465.596088 68.287415,465.596088 Z M85.047619,480.047619 L81.1062925,480.047619 L81.1062925,473.857143 C81.1062925,472.381803 81.0765306,470.489796 79.0527211,470.489796 C76.9991497,470.489796 76.6845238,472.092687 76.6845238,473.75085 L76.6845238,480.047619 L72.7389456,480.047619 L72.7389456,467.330782 L76.5272109,467.330782 L76.5272109,469.065476 L76.582483,469.065476 C77.1096939,468.066327 78.3979592,467.011905 80.3197279,467.011905 C84.3163265,467.011905 85.0518707,469.643707 85.0518707,473.062075 L85.0518707,480.047619 L85.047619,480.047619 Z" id="contact-logo-linkedin-black"></path>
        </g>
    </g>
</svg>