<?xml version="1.0" encoding="UTF-8"?>
<svg width="20px" height="16px" viewBox="0 0 20 16" version="1.1" xmlns="http://www.w3.org/2000/svg" xmlns:xlink="http://www.w3.org/1999/xlink">
    <!-- Generator: Sketch 49.3 (51167) - http://www.bohemiancoding.com/sketch -->
    <title>contact-logo-medium-black</title>
    <desc>Created with Sketch.</desc>
    <defs></defs>
    <g id="Design-V2" stroke="none" stroke-width="1" fill="none" fill-rule="evenodd">
        <g id="Desktop-HD-Copy" transform="translate(-122.000000, -465.000000)" fill="#000000" fill-rule="nonzero">
            <path d="M124.314096,468.162194 C124.338327,467.923919 124.24544,467.685644 124.067744,467.524101 L122.246352,465.327124 L122.246352,465 L127.908416,465 L132.286217,474.599661 L136.134966,465 L141.534523,465 L141.534523,465.327124 L139.975638,466.821391 C139.842366,466.922355 139.77371,467.091975 139.80198,467.257556 L139.80198,478.242444 C139.77371,478.408025 139.842366,478.577645 139.975638,478.678609 L141.498176,480.172876 L141.498176,480.5 L133.837024,480.5 L133.837024,480.172876 L135.416102,478.642262 C135.569567,478.488796 135.569567,478.440334 135.569567,478.206097 L135.569567,469.329338 L131.179651,480.47173 L130.585982,480.47173 L125.48124,469.329338 L125.48124,476.796639 C125.436816,477.111647 125.541819,477.426655 125.76394,477.652814 L127.815529,480.140568 L127.815529,480.467692 L122,480.467692 L122,480.144607 L124.051589,477.652814 C124.269672,477.426655 124.370636,477.107608 124.314096,476.796639 L124.314096,468.162194 Z" id="contact-logo-medium-black"></path>
        </g>
    </g>
</svg>