<?xml version="1.0" encoding="UTF-8"?>
<svg width="18px" height="18px" viewBox="0 0 18 18" version="1.1" xmlns="http://www.w3.org/2000/svg" xmlns:xlink="http://www.w3.org/1999/xlink">
    <!-- Generator: Sketch 49.3 (51167) - http://www.bohemiancoding.com/sketch -->
    <title>contact-logo-dribbble-black</title>
    <desc>Created with Sketch.</desc>
    <defs></defs>
    <g id="Design-V2" stroke="none" stroke-width="1" fill="none" fill-rule="evenodd">
        <g id="Desktop-HD-Copy" transform="translate(-178.000000, -463.000000)" fill="#000000" fill-rule="nonzero">
            <path d="M187,463 C182.037371,463 178,467.037371 178,472 C178,476.962629 182.037371,481 187,481 C191.962629,481 196,476.962629 196,472 C196,467.037371 191.962629,463 187,463 Z M192.950524,467.150379 C194.021198,468.4585 194.66956,470.124625 194.686472,471.939069 C194.43302,471.885468 191.891464,471.369964 189.333577,471.691641 C189.124835,471.182089 188.927815,470.733831 188.65796,470.181456 C191.500254,469.021 192.788452,467.369609 192.950524,467.150379 Z M192.095923,466.261411 C191.957657,466.458359 190.800468,468.013726 188.066935,469.03831 C186.807226,466.723859 185.411028,464.822536 185.198548,464.53802 C187.636387,463.950371 190.205379,464.584109 192.095923,466.261411 Z M183.73173,465.054758 C183.934411,465.332706 185.308109,467.236387 186.581863,469.500649 C182.985964,470.455556 179.818798,470.441802 179.474984,470.437266 C179.973468,468.051794 181.581056,466.069181 183.73173,465.054758 Z M179.312621,472.011722 C179.312621,471.933117 179.314181,471.854875 179.31654,471.776815 C179.652879,471.78371 183.378153,471.831722 187.217161,470.682806 C187.437226,471.1135 187.647456,471.55069 187.840411,471.987407 C185.060609,472.770371 182.534984,475.018629 181.288883,477.151738 C180.061073,475.788891 179.312621,473.986169 179.312621,472.011722 Z M182.281423,478.076306 C183.084419,476.434786 185.26369,474.315831 188.362919,473.258548 C189.442194,476.063173 189.888528,478.413698 190.002843,479.088153 C187.531036,480.141044 184.55875,479.852173 182.281423,478.076306 Z M191.295214,478.384375 C191.216427,477.916738 190.807254,475.666339 189.801794,472.903339 C192.210746,472.517718 194.327198,473.148952 194.590194,473.231948 C194.24754,475.370935 193.019802,477.218222 191.295214,478.384375 Z" id="contact-logo-dribbble-black"></path>
        </g>
    </g>
</svg>